HIERARCHY
ROOT Hips
{
   OFFSET 0.00000 0.00000 0.00000
   CHANNELS 6 Xposition Yposition Zposition Zrotation Xrotation Yrotation
   JOINT Spine
   {
      OFFSET 0.000000 11.890501 0.000000
      CHANNELS 3 Zrotation Xrotation Yrotation
      JOINT Spine1
      {
         OFFSET -0.000000 25.657401 0.127660
         CHANNELS 3 Zrotation Xrotation Yrotation
         JOINT HEad
         {
            OFFSET 0.000000 8.734161 0.011340
            CHANNELS 3 Zrotation Xrotation Yrotation
            End Site
            {
               OFFSET -0.290000 12.774200 2.513950
            }
         }
         JOINT LeftShoulder1
         {
            OFFSET 8.990000 -0.362250 -0.220000
            CHANNELS 3 Zrotation Xrotation Yrotation
            JOINT LeftArm
            {
               OFFSET 10.282700 -0.003380 0.322120
               CHANNELS 3 Zrotation Xrotation Yrotation
               JOINT LeftForeArm
               {
                  OFFSET 32.766900 0.099140 -1.424340
                  CHANNELS 3 Zrotation Xrotation Yrotation
                  JOINT LeftHand
                  {
                     OFFSET 27.564301 0.085360 1.022160
                     CHANNELS 3 Zrotation Xrotation Yrotation
                     End Site
                     {
                        OFFSET 16.744301 -0.600000 1.502910
                     }
                  }
               }
            }
         }
         JOINT RightShoulder
         {
            OFFSET -8.990000 -0.362250 -0.220000
            CHANNELS 3 Zrotation Xrotation Yrotation
            JOINT RightArm
            {
               OFFSET -10.282700 -0.003380 0.322120
               CHANNELS 3 Zrotation Xrotation Yrotation
               JOINT RightForeArm
               {
                  OFFSET -32.897098 0.099140 -1.424340
                  CHANNELS 3 Zrotation Xrotation Yrotation
                  JOINT RightHand
                  {
                     OFFSET -27.492101 0.085360 1.022160
                     CHANNELS 3 Zrotation Xrotation Yrotation
                     End Site
                     {
                        OFFSET -16.631201 -0.600000 1.502910
                     }
                  }
               }
            }
         }
      }
   }
   JOINT LeftUpLeg
   {
      OFFSET 8.945800 -8.667070 0.101650
      CHANNELS 3 Zrotation Xrotation Yrotation
      JOINT LeftLeg
      {
         OFFSET 0.000000 -44.422697 1.372700
         CHANNELS 3 Zrotation Xrotation Yrotation
         JOINT LeftFoot
         {
            OFFSET -0.253550 -42.092399 -1.460590
            CHANNELS 3 Zrotation Xrotation Yrotation
            JOINT LeftToes
            {
               OFFSET -0.040000 -4.415090 8.499099
               CHANNELS 3 Zrotation Xrotation Yrotation
               End Site
               {
                  OFFSET 0.080000 -0.047450 9.779790
               }
            }
         }
      }
   }
   JOINT RightUpLeg
   {
      OFFSET -8.945800 -8.667070 0.101650
      CHANNELS 3 Zrotation Xrotation Yrotation
      JOINT RightLeg
      {
         OFFSET 0.000000 -44.422697 1.372700
         CHANNELS 3 Zrotation Xrotation Yrotation
         JOINT RightFoot
         {
            OFFSET 0.253550 -42.092399 -1.460590
            CHANNELS 3 Zrotation Xrotation Yrotation
            JOINT RightToes
            {
               OFFSET 0.040000 -4.415090 8.499099
               CHANNELS 3 Zrotation Xrotation Yrotation
               End Site
               {
                  OFFSET -0.080000 -0.137450 9.779790
               }
            }
         }
      }
   }
}
MOTION
Frames: 19
Frame Time: 0.016670
29.800214 90.913619 -13.936733 6.785588 -1.640240 120.666493 4.759289 12.833878 -15.945927 0.199805 0.471148 0.143507 -22.316692 1.771949 61.347093 4.314275 -4.223879 5.463602 -35.611599 -66.861234 -43.192716 9.518360 38.935606 -100.144882 -10.110013 20.344306 56.643131 15.285962 -17.538684 3.377431 62.172015 20.443649 65.120881 3.833897 24.002512 94.777877 3.351140 15.948145 0.168347 43.729934 -24.402661 -14.104186 -31.968523 20.925620 55.503876 -0.029704 2.122846 1.640863 1.615159 8.801148 -4.908391 -17.166255 -16.346611 -0.075383 7.194377 53.838929 -12.524381 7.265432 1.380357 0.694371 2.781304 -4.060044 -15.446394
29.202547 90.444449 -14.778477 6.981612 -1.870340 120.280273 5.158665 13.596009 -16.827962 0.033088 0.563790 0.253126 -22.182108 0.971053 61.350016 3.853582 -4.950095 6.491763 -25.825217 -58.309824 -38.155701 10.843023 33.205593 -85.266948 -6.495624 20.450592 42.565056 14.723678 -17.905057 3.466785 59.766238 18.478623 63.185493 1.963377 20.247478 96.364250 4.296165 10.724818 10.377779 42.674732 -23.691613 -14.025770 -31.892926 20.652960 52.328559 3.521351 2.299600 1.521329 -16.533520 -3.474338 -5.212916 -17.412208 -17.330300 0.227734 9.776959 54.078685 -14.915217 6.631131 1.368261 0.730081 -0.028148 -10.334702 -10.423277
28.507289 90.050143 -15.673181 7.254848 -2.173450 119.926019 5.143943 14.086627 -17.456394 0.261192 0.498333 0.351601 -22.017731 0.364021 61.169849 3.189013 -5.575496 7.459570 -19.192920 -49.317132 -38.169027 10.845420 28.173945 -67.348507 -12.280605 16.362550 54.341146 14.205339 -18.054873 3.456365 58.169661 17.518662 62.022605 1.061777 18.168957 97.309773 5.000078 10.686316 8.423226 40.965596 -22.415784 -13.316634 -29.926774 20.772497 48.039244 6.897572 2.224237 1.345732 -14.718317 -0.565153 -0.512282 -17.336022 -18.325872 0.448738 12.177205 54.484118 -17.048630 6.331749 1.385124 0.719698 1.038942 -6.531970 -12.096709
27.775869 89.692219 -16.622586 7.535656 -2.297516 119.385259 5.180088 14.604206 -18.018591 0.339586 0.470807 0.289367 -22.080938 -0.158339 60.876096 2.313644 -5.854422 8.273324 -14.511268 -41.040479 -41.735229 8.971385 24.844910 -46.080783 -1.011100 15.967123 30.996720 13.641839 -17.924150 3.452195 57.132917 17.385683 61.395204 0.986711 17.382232 98.814860 6.057872 8.665014 13.718383 39.177665 -21.196280 -12.462343 -27.721445 20.698291 44.012417 9.986318 2.000101 1.181440 -34.810623 -15.011204 -5.801920 -17.276952 -19.265693 0.656962 14.478196 54.979068 -18.879498 6.377909 1.336328 0.753472 0.012899 -8.678144 -10.817327
27.044375 89.406041 -17.589539 7.707681 -2.259637 118.789065 5.042803 15.096115 -18.491206 0.236248 0.253984 0.107706 -22.284561 -0.617564 60.471674 1.422748 -5.857006 8.735374 -11.955634 -35.305176 -48.293723 5.208686 22.274246 -23.121124 -15.138518 6.243537 27.983712 13.143556 -17.821453 3.515016 56.969238 17.472008 61.121491 1.167132 16.691483 99.391055 5.778190 9.089835 11.617643 37.588129 -20.132913 -11.331341 -25.538885 20.750543 40.443988 12.843814 1.855263 1.120525 -34.504415 -12.604785 0.058785 -17.262209 -20.185818 0.833736 16.553689 55.471709 -20.413298 6.676618 1.258715 0.790490 -0.013376 -8.351798 -11.030928
26.336288 89.185389 -18.566321 7.803300 -2.118806 118.172026 4.837203 15.475424 -18.680444 0.228747 0.081592 0.033870 -22.416322 -0.880281 59.921236 1.106484 -5.634973 8.786500 -9.823973 -32.234463 -52.408707 0.596877 16.541076 -4.664446 0.032950 7.829789 13.247409 12.468068 -17.844096 3.570236 57.112485 17.791237 61.051277 1.379782 16.263423 99.514716 5.187694 8.095826 13.789491 36.021362 -19.239026 -10.116374 -23.439782 20.787829 37.219169 15.514563 1.738700 0.987998 -38.990282 -15.238919 -0.566688 -17.238685 -21.136353 1.006358 18.383101 56.010160 -21.671038 7.176845 1.188582 0.837773 -0.501437 -9.315197 -10.825255
25.670037 89.034947 -19.531234 7.890774 -1.694291 117.406143 4.688415 15.623795 -18.630140 0.029298 0.073517 0.035220 -22.448911 -0.998161 59.232364 0.479951 -5.200224 8.706706 -8.602359 -30.604199 -54.795094 -0.852128 7.675761 8.115368 -7.619219 -1.989021 -1.089261 12.129768 -17.966731 3.538610 57.969728 18.094028 60.991725 1.797479 15.387093 99.344302 3.465528 8.286642 11.578561 34.346484 -18.332014 -8.838259 -21.507333 20.955927 34.459162 18.040483 1.808097 0.824577 -41.621622 -15.136490 1.493993 -17.380904 -21.942987 1.114040 19.891234 56.486276 -22.684974 7.695827 1.187373 0.888668 -0.614319 -9.357016 -11.108414
25.064168 88.909186 -20.488581 8.098000 -1.269365 116.519489 4.582990 15.750836 -18.407684 -0.031539 0.235872 0.038586 -22.354444 -0.941214 58.389265 0.238739 -4.810541 8.361643 -12.023192 -31.760458 -56.750700 2.193247 2.059546 13.327463 12.361219 -1.975452 -5.200123 11.537029 -18.001923 3.667220 58.199577 18.576135 60.769347 1.907328 15.395028 99.513985 2.611177 7.812540 11.990889 32.793436 -17.469189 -7.591678 -19.633182 21.180352 32.161643 20.425708 2.380649 0.508309 -45.400865 -16.185967 1.975214 -17.471354 -22.535581 1.091518 21.084476 56.838348 -23.469162 8.156795 1.259489 0.972235 -0.753528 -9.506073 -11.579521
24.537270 88.841666 -21.434934 8.455201 -0.982025 115.868326 4.039706 15.986044 -17.859739 -0.167321 0.579594 0.182546 -22.308086 -0.796943 57.419918 -0.141372 -4.318599 8.160581 -18.103970 -33.633112 -56.958911 5.871316 -1.716102 8.866858 -4.535582 12.335860 -25.434774 11.037478 -18.045993 3.910025 58.271718 19.062411 60.414594 1.785418 15.584057 99.606261 1.856446 8.145384 9.697293 31.482739 -16.756705 -6.176060 -18.031037 21.679280 30.445517 22.817683 2.739973 0.409685 -48.761284 -16.970585 2.920695 -17.283862 -22.871573 1.010474 21.816995 57.132374 -24.082673 8.497075 1.418563 1.024801 -0.635633 -9.211516 -12.337805
24.111626 88.838881 -22.353146 8.636784 -0.642529 115.038007 3.732849 16.154646 -17.116686 -0.017709 0.642550 0.326850 -22.214185 -0.570507 56.305122 -0.475977 -4.103032 8.379815 -25.389960 -36.580509 -55.590134 6.976689 -2.976749 -4.370460 3.292512 -6.749495 -17.124575 11.009614 -18.259517 3.957757 58.706931 19.096656 59.949110 1.673611 15.286008 99.738602 1.370079 7.974137 9.226097 30.234102 -16.174399 -4.625586 -16.971536 22.410583 29.140063 25.222671 2.794748 0.422876 -52.286287 -18.575049 3.233072 -17.187691 -23.244228 0.824363 22.039111 57.302487 -24.502942 8.763805 1.636022 1.031937 -0.393893 -8.839421 -13.167683
23.771343 88.898085 -23.255963 8.659257 -0.437569 114.213686 3.142384 16.180274 -16.221506 0.231024 0.660750 0.430856 -22.019685 -0.334319 55.051608 -0.880431 -4.061482 8.517849 -33.387368 -40.924369 -53.483325 4.194618 0.051994 -22.605838 20.355726 7.750531 -25.410722 10.794427 -18.418409 4.203487 58.656421 19.448042 59.388269 1.399951 15.514054 100.180898 1.529268 8.336293 7.495842 29.337155 -15.790877 -3.113464 -16.320857 23.189177 28.117251 27.646741 2.746813 0.371635 -55.611151 -20.282073 3.357997 -17.008339 -23.405839 0.557662 20.587618 55.970190 -24.974407 17.646383 1.915236 0.836181 -8.445428 -7.057719 -12.512985
23.500239 88.992728 -24.123864 8.583896 -0.354663 113.303297 2.640076 16.077268 -15.254760 0.483142 0.639827 0.428985 -21.765115 -0.098364 53.672354 -1.285646 -4.337511 8.719890 -42.112266 -47.193213 -51.631855 -0.167596 7.749862 -41.948010 14.251739 10.765312 -12.192289 10.501516 -18.445981 4.449953 58.285986 19.889910 58.583338 1.124135 16.061260 101.041044 2.143676 8.470916 7.007545 28.563878 -15.460914 -1.681458 -15.738943 23.840043 27.420283 30.041252 2.655007 0.329833 -58.907772 -22.241751 3.192812 -16.831570 -23.489492 0.208517 19.417920 55.082791 -25.009733 12.848719 1.898234 1.213733 -2.876639 -6.092715 -12.313133
23.311662 89.154309 -24.980740 7.990059 -0.385992 112.447344 2.357577 15.846124 -14.148945 0.983275 0.406066 0.420808 -21.547753 0.196168 52.178346 -1.513291 -4.699730 8.758479 -51.868504 -54.593559 -51.026390 -4.234496 19.197314 -60.822233 23.340636 -0.471312 -14.404712 10.938882 -18.902617 4.636948 59.134016 19.951922 57.925175 0.799848 15.040741 100.602703 1.799912 8.719460 4.936796 27.777580 -15.575133 -0.293959 -15.304630 24.375287 27.033132 32.377388 2.566437 0.307664 -62.114717 -24.243121 2.872358 -16.703969 -23.860125 -0.052554 18.102906 54.385521 -24.544712 14.971686 2.105580 1.239171 -4.218842 -5.839303 -11.759304
23.165190 89.313925 -25.821588 7.764376 -0.682019 111.834847 1.542496 15.743980 -12.858748 1.160621 0.396041 0.484558 -21.124290 0.548446 50.550722 -1.373024 -5.475201 8.610159 -63.482059 -62.623682 -53.007527 -7.574388 32.385871 -78.328862 18.490007 17.611761 5.414531 10.257132 -18.969708 4.960413 58.288063 20.431338 56.676240 0.038112 15.797162 100.460205 2.610250 9.019244 3.825611 27.366177 -15.772049 1.015892 -14.958053 25.303329 26.990654 34.731819 2.287499 0.543173 -65.234105 -26.455209 2.284328 -16.358426 -23.753559 -0.493756 16.757593 53.735065 -23.427537 13.943333 2.284290 1.368603 -2.356888 -5.864446 -11.133730
23.065767 89.497412 -26.627776 7.323062 -0.654489 111.079346 1.434566 15.172809 -11.578178 1.043262 0.382857 0.505405 -20.780115 1.079589 48.886044 -1.243227 -6.489309 8.381159 -79.154475 -70.088109 -59.405386 -8.631086 46.066576 -93.445601 15.943133 21.900991 16.876270 10.302451 -19.240984 5.076865 58.419530 20.786127 55.571409 -0.123949 15.477012 100.799153 2.622478 9.203918 3.007263 26.800670 -15.854800 2.279826 -14.934231 25.941270 26.852505 36.887290 2.427738 0.271587 -68.376238 -28.268587 1.718493 -16.398497 -23.758687 -0.864209 15.325078 53.157105 -22.120157 13.479203 2.544321 1.472450 -1.020190 -6.044820 -10.505278
23.006715 89.700211 -27.410349 6.791945 -0.491250 110.152407 1.617433 14.158157 -10.207700 0.689346 0.434565 0.604735 -20.419993 1.818447 47.155185 -1.259284 -7.807367 8.318142 -99.636573 -75.564835 -72.389473 -8.091307 58.443839 -106.644169 18.496620 21.336951 20.629384 10.883678 -19.663397 5.000671 59.313083 21.089514 54.534966 0.247285 14.306588 101.596605 1.915534 9.275006 2.616232 25.954215 -15.913168 3.291735 -14.580226 26.466744 26.727241 39.036064 2.544447 -0.015020 -71.416963 -30.012001 0.966332 -16.578339 -23.760966 -1.155502 13.792724 52.433337 -20.602506 13.378793 2.800025 1.608602 -0.062385 -6.345311 -9.819856
22.981851 89.898375 -28.190240 6.267461 -0.685636 109.405075 1.301309 13.185071 -8.713355 0.414182 0.437355 0.820349 -19.875772 2.638297 45.358251 -1.214722 -9.665182 8.279782 -124.467944 -78.065913 -91.703260 -5.591620 69.026431 -118.628037 24.498803 19.202870 19.357554 11.170381 -19.868045 4.941191 59.802575 21.508988 53.153065 0.246118 13.491761 101.702131 1.550961 9.430014 2.136407 25.323433 -16.253629 4.002448 -13.967688 27.095500 26.568850 41.100008 2.802516 -0.489347 -74.347244 -31.516743 0.066171 -16.510222 -23.776182 -1.463652 12.231101 51.594265 -18.842105 13.460298 3.169166 1.769621 0.638678 -6.745721 -9.119716
23.000812 90.219401 -28.917250 5.662535 -0.833505 108.526385 0.919591 13.007978 -6.995893 0.405264 0.446511 1.014990 -19.060352 3.496883 42.930833 -1.466456 -11.244057 8.308263 -149.601538 -78.456710 -112.217986 -3.702231 78.770967 -127.647370 26.130422 14.477684 17.349946 11.368157 -20.400520 4.568658 60.580240 22.591833 51.182504 0.236040 13.039614 101.779176 4.736608 5.142797 -0.056438 24.459939 -16.539672 4.176374 -13.210360 27.612488 27.035504 42.945344 3.343755 -1.001284 -76.165550 -29.007171 -5.094519 -16.492323 -23.450095 -1.617446 11.769837 49.950106 -18.305788 12.891632 3.582828 1.947431 -0.283420 -12.088618 -8.764409
23.016629 90.427302 -29.618923 5.841637 -0.951561 107.820062 -0.206700 12.728297 -4.827754 0.118694 0.781370 1.419617 -17.906215 4.375158 39.961996 -2.152879 -12.614114 8.033347 -167.888331 -76.736554 -127.951505 -2.545043 88.432228 -133.289229 23.781984 8.257897 15.095527 11.979594 -20.842969 3.584566 61.602555 23.429297 49.119114 1.396576 11.963447 99.849593 7.263270 4.126516 0.003865 23.436674 -16.368273 3.658818 -12.104212 28.082999 28.033588 44.601313 4.044991 -1.530183 -76.660418 -24.414315 -12.541802 -16.234870 -22.198291 -1.668667 11.999645 47.690235 -18.777735 11.809968 4.078661 1.996193 -2.109863 -20.053055 -9.034859
